<svg width="111" height="117" viewBox="0 0 111 117" fill="none" xmlns="http://www.w3.org/2000/svg">
<path d="M66.8815 84.694V90.185C66.8815 90.6384 66.9779 90.9614 67.1705 91.154C67.3632 91.3354 67.6975 91.426 68.1735 91.426H69.3125V92.735H67.9185C67.0572 92.735 66.4112 92.5367 65.9805 92.14C65.5499 91.7434 65.3345 91.0917 65.3345 90.185V84.694H64.1275V83.419H65.3345V81.073H66.8815V83.419H69.3125V84.694H66.8815ZM71.9859 81.906C71.6913 81.906 71.4419 81.804 71.2379 81.6C71.0339 81.396 70.9319 81.1467 70.9319 80.852C70.9319 80.5574 71.0339 80.308 71.2379 80.104C71.4419 79.9 71.6913 79.798 71.9859 79.798C72.2693 79.798 72.5073 79.9 72.6999 80.104C72.9039 80.308 73.0059 80.5574 73.0059 80.852C73.0059 81.1467 72.9039 81.396 72.6999 81.6C72.5073 81.804 72.2693 81.906 71.9859 81.906ZM72.7339 83.419V92.735H71.1869V83.419H72.7339ZM86.5735 83.249C87.2989 83.249 87.9449 83.402 88.5115 83.708C89.0782 84.0027 89.5259 84.4504 89.8545 85.051C90.1832 85.6517 90.3475 86.3827 90.3475 87.244V92.735H88.8175V87.465C88.8175 86.5357 88.5852 85.8274 88.1205 85.34C87.6672 84.8414 87.0495 84.592 86.2675 84.592C85.4629 84.592 84.8225 84.8527 84.3465 85.374C83.8705 85.884 83.6325 86.6264 83.6325 87.601V92.735H82.1025V87.465C82.1025 86.5357 81.8702 85.8274 81.4055 85.34C80.9522 84.8414 80.3345 84.592 79.5525 84.592C78.7479 84.592 78.1075 84.8527 77.6315 85.374C77.1555 85.884 76.9175 86.6264 76.9175 87.601V92.735H75.3705V83.419H76.9175V84.762C77.2235 84.2747 77.6315 83.9007 78.1415 83.64C78.6629 83.3794 79.2352 83.249 79.8585 83.249C80.6405 83.249 81.3319 83.4247 81.9325 83.776C82.5332 84.1274 82.9809 84.643 83.2755 85.323C83.5362 84.6657 83.9669 84.1557 84.5675 83.793C85.1682 83.4304 85.8369 83.249 86.5735 83.249ZM101.385 87.72C101.385 88.0147 101.368 88.3264 101.334 88.655H93.8882C93.9448 89.573 94.2565 90.2927 94.8232 90.814C95.4012 91.324 96.0982 91.579 96.9142 91.579C97.5828 91.579 98.1382 91.426 98.5802 91.12C99.0335 90.8027 99.3508 90.3834 99.5322 89.862H101.198C100.949 90.7574 100.45 91.4884 99.7022 92.055C98.9542 92.6104 98.0248 92.888 96.9142 92.888C96.0302 92.888 95.2368 92.6897 94.5342 92.293C93.8428 91.8964 93.2988 91.3354 92.9022 90.61C92.5055 89.8734 92.3072 89.0234 92.3072 88.06C92.3072 87.0967 92.4998 86.2524 92.8852 85.527C93.2705 84.8017 93.8088 84.2464 94.5002 83.861C95.2028 83.4644 96.0075 83.266 96.9142 83.266C97.7982 83.266 98.5802 83.4587 99.2602 83.844C99.9402 84.2294 100.462 84.762 100.824 85.442C101.198 86.1107 101.385 86.87 101.385 87.72ZM99.7872 87.397C99.7872 86.8077 99.6568 86.3034 99.3962 85.884C99.1355 85.4534 98.7785 85.1304 98.3252 84.915C97.8832 84.6884 97.3902 84.575 96.8462 84.575C96.0642 84.575 95.3955 84.8244 94.8402 85.323C94.2962 85.8217 93.9845 86.513 93.9052 87.397H99.7872ZM106.725 92.888C106.011 92.888 105.371 92.769 104.804 92.531C104.237 92.2817 103.79 91.9417 103.461 91.511C103.132 91.069 102.951 90.5647 102.917 89.998H104.515C104.56 90.4627 104.776 90.8424 105.161 91.137C105.558 91.4317 106.073 91.579 106.708 91.579C107.297 91.579 107.762 91.4487 108.102 91.188C108.442 90.9274 108.612 90.5987 108.612 90.202C108.612 89.794 108.431 89.4937 108.068 89.301C107.705 89.097 107.144 88.8987 106.385 88.706C105.694 88.5247 105.127 88.3434 104.685 88.162C104.254 87.9694 103.88 87.6917 103.563 87.329C103.257 86.955 103.104 86.4677 103.104 85.867C103.104 85.391 103.246 84.9547 103.529 84.558C103.812 84.1614 104.215 83.8497 104.736 83.623C105.257 83.385 105.852 83.266 106.521 83.266C107.552 83.266 108.385 83.5267 109.02 84.048C109.655 84.5694 109.995 85.2834 110.04 86.19H108.493C108.459 85.7027 108.261 85.3117 107.898 85.017C107.547 84.7224 107.071 84.575 106.47 84.575C105.915 84.575 105.473 84.694 105.144 84.932C104.815 85.17 104.651 85.4817 104.651 85.867C104.651 86.173 104.747 86.428 104.94 86.632C105.144 86.8247 105.393 86.9834 105.688 87.108C105.994 87.2214 106.413 87.3517 106.946 87.499C107.615 87.6804 108.159 87.8617 108.578 88.043C108.997 88.213 109.354 88.4737 109.649 88.825C109.955 89.1764 110.114 89.6354 110.125 90.202C110.125 90.712 109.983 91.171 109.7 91.579C109.417 91.987 109.014 92.31 108.493 92.548C107.983 92.7747 107.394 92.888 106.725 92.888Z" fill="#491782"/>
<path d="M3.26828 53.8507V48.8707H14.5483V92.2507H9.02828V53.8507H3.26828ZM30.947 80.6107C31.347 82.8907 32.267 84.6507 33.707 85.8907C35.187 87.1307 37.167 87.7507 39.647 87.7507C42.967 87.7507 45.407 86.4507 46.967 83.8507C48.567 81.2507 49.327 76.8707 49.247 70.7107C48.407 72.5107 47.007 73.9307 45.047 74.9707C43.087 75.9707 40.907 76.4707 38.507 76.4707C35.827 76.4707 33.427 75.9307 31.307 74.8507C29.227 73.7307 27.587 72.1107 26.387 69.9907C25.187 67.8707 24.587 65.3107 24.587 62.3107C24.587 58.0307 25.827 54.5907 28.307 51.9907C30.787 49.3507 34.307 48.0307 38.867 48.0307C44.467 48.0307 48.387 49.8507 50.627 53.4907C52.907 57.1307 54.047 62.5507 54.047 69.7507C54.047 74.7907 53.587 78.9507 52.667 82.2307C51.787 85.5107 50.267 88.0107 48.107 89.7307C45.987 91.4507 43.067 92.3107 39.347 92.3107C35.267 92.3107 32.087 91.2107 29.807 89.0107C27.527 86.8107 26.227 84.0107 25.907 80.6107H30.947ZM39.407 71.8507C42.087 71.8507 44.287 71.0307 46.007 69.3907C47.727 67.7107 48.587 65.4507 48.587 62.6107C48.587 59.6107 47.747 57.1907 46.067 55.3507C44.387 53.5107 42.027 52.5907 38.987 52.5907C36.187 52.5907 33.947 53.4707 32.267 55.2307C30.627 56.9907 29.807 59.3107 29.807 62.1907C29.807 65.1107 30.627 67.4507 32.267 69.2107C33.907 70.9707 36.287 71.8507 39.407 71.8507Z" fill="#491783"/>
<path d="M0 3C0 1.58579 0 0.87868 0.43934 0.43934C0.87868 0 1.58579 0 3 0H86.5628C88.8676 0 90.02 0 90.4533 0.748726C90.8865 1.49745 90.3123 2.4966 89.1638 4.4949L78.6623 22.7666C78.2402 23.5011 78.0292 23.8683 77.6806 24.07C77.332 24.2717 76.9085 24.2717 76.0613 24.2717H3C1.58579 24.2717 0.87868 24.2717 0.43934 23.8324C0 23.3931 0 22.686 0 21.2717V3Z" fill="#8575E7"/>
<path d="M33.6953 17.115C33.0279 17.115 32.4213 16.9634 31.8753 16.66C31.3379 16.3567 30.9133 15.9277 30.6013 15.373C30.2979 14.8097 30.1463 14.1597 30.1463 13.423C30.1463 12.695 30.3023 12.0537 30.6143 11.499C30.9349 10.9357 31.3683 10.5067 31.9143 10.212C32.4603 9.90871 33.0713 9.75705 33.7473 9.75705C34.4233 9.75705 35.0343 9.90871 35.5803 10.212C36.1263 10.5067 36.5553 10.9314 36.8673 11.486C37.1879 12.0407 37.3483 12.6864 37.3483 13.423C37.3483 14.1597 37.1836 14.8097 36.8543 15.373C36.5336 15.9277 36.0959 16.3567 35.5413 16.66C34.9866 16.9634 34.3713 17.115 33.6953 17.115ZM33.6953 16.075C34.1199 16.075 34.5186 15.9754 34.8913 15.776C35.2639 15.5767 35.5629 15.2777 35.7883 14.879C36.0223 14.4804 36.1393 13.995 36.1393 13.423C36.1393 12.851 36.0266 12.3657 35.8013 11.967C35.5759 11.5684 35.2813 11.2737 34.9173 11.083C34.5533 10.8837 34.1589 10.784 33.7343 10.784C33.3009 10.784 32.9023 10.8837 32.5383 11.083C32.1829 11.2737 31.8969 11.5684 31.6803 11.967C31.4636 12.3657 31.3553 12.851 31.3553 13.423C31.3553 14.0037 31.4593 14.4934 31.6673 14.892C31.8839 15.2907 32.1699 15.5897 32.5253 15.789C32.8806 15.9797 33.2706 16.075 33.6953 16.075ZM42.8557 15.906L45.0657 9.87405H46.3267L43.5317 16.998H42.1537L39.3587 9.87405H40.6327L42.8557 15.906ZM55.2908 13.163C55.2908 13.3884 55.2778 13.6267 55.2518 13.878H49.5578C49.6012 14.58 49.8395 15.1304 50.2728 15.529C50.7148 15.919 51.2478 16.114 51.8718 16.114C52.3832 16.114 52.8078 15.997 53.1458 15.763C53.4925 15.5204 53.7352 15.1997 53.8738 14.801H55.1478C54.9572 15.4857 54.5758 16.0447 54.0038 16.478C53.4318 16.9027 52.7212 17.115 51.8718 17.115C51.1958 17.115 50.5892 16.9634 50.0518 16.66C49.5232 16.3567 49.1072 15.9277 48.8038 15.373C48.5005 14.8097 48.3488 14.1597 48.3488 13.423C48.3488 12.6864 48.4962 12.0407 48.7908 11.486C49.0855 10.9314 49.4972 10.5067 50.0258 10.212C50.5632 9.90871 51.1785 9.75705 51.8718 9.75705C52.5478 9.75705 53.1458 9.90438 53.6658 10.199C54.1858 10.4937 54.5845 10.901 54.8618 11.421C55.1478 11.9324 55.2908 12.513 55.2908 13.163ZM54.0688 12.916C54.0688 12.4654 53.9692 12.0797 53.7698 11.759C53.5705 11.4297 53.2975 11.1827 52.9508 11.018C52.6128 10.8447 52.2358 10.758 51.8198 10.758C51.2218 10.758 50.7105 10.9487 50.2858 11.33C49.8698 11.7114 49.6315 12.24 49.5708 12.916H54.0688ZM59.3353 11.031C59.5433 10.6237 59.838 10.3074 60.2193 10.082C60.6093 9.85671 61.0817 9.74405 61.6363 9.74405V10.966H61.3243C59.9983 10.966 59.3353 11.6854 59.3353 13.124V16.998H58.1523V9.87405H59.3353V11.031Z" fill="white"/>
</svg>
