<svg width="120" height="120" viewBox="0 0 120 120" fill="none" xmlns="http://www.w3.org/2000/svg">
<path d="M120 60C120 93.1371 93.1371 120 60 120C26.8629 120 0 93.1371 0 60C0 26.8629 26.8629 0 60 0C93.1371 0 120 26.8629 120 60ZM19.179 60C19.179 82.5448 37.4552 100.821 60 100.821C82.5448 100.821 100.821 82.5448 100.821 60C100.821 37.4552 82.5448 19.179 60 19.179C37.4552 19.179 19.179 37.4552 19.179 60Z" fill="#8575E7"/>
<path d="M51.3837 57.765C51.4437 56.835 51.7987 56.11 52.4487 55.59C53.1087 55.07 53.9487 54.81 54.9687 54.81C55.6687 54.81 56.2737 54.935 56.7837 55.185C57.2937 55.435 57.6787 55.775 57.9387 56.205C58.1987 56.635 58.3287 57.12 58.3287 57.66C58.3287 58.28 58.1637 58.81 57.8337 59.25C57.5037 59.69 57.1087 59.985 56.6487 60.135V60.195C57.2387 60.375 57.6987 60.705 58.0287 61.185C58.3587 61.655 58.5237 62.26 58.5237 63C58.5237 63.59 58.3887 64.115 58.1187 64.575C57.8487 65.035 57.4487 65.4 56.9187 65.67C56.3887 65.93 55.7537 66.06 55.0137 66.06C53.9337 66.06 53.0437 65.785 52.3437 65.235C51.6537 64.675 51.2837 63.875 51.2337 62.835H52.8837C52.9237 63.365 53.1287 63.8 53.4987 64.14C53.8687 64.47 54.3687 64.635 54.9987 64.635C55.6087 64.635 56.0787 64.47 56.4087 64.14C56.7387 63.8 56.9037 63.365 56.9037 62.835C56.9037 62.135 56.6787 61.64 56.2287 61.35C55.7887 61.05 55.1087 60.9 54.1887 60.9H53.7987V59.49H54.2037C55.0137 59.48 55.6287 59.345 56.0487 59.085C56.4787 58.825 56.6937 58.415 56.6937 57.855C56.6937 57.375 56.5387 56.995 56.2287 56.715C55.9187 56.425 55.4787 56.28 54.9087 56.28C54.3487 56.28 53.9137 56.425 53.6037 56.715C53.2937 56.995 53.1087 57.345 53.0487 57.765H51.3837ZM67.3699 56.535H62.3449V59.52C62.5549 59.24 62.8649 59.005 63.2749 58.815C63.6949 58.625 64.1399 58.53 64.6099 58.53C65.4499 58.53 66.1299 58.71 66.6499 59.07C67.1799 59.43 67.5549 59.885 67.7749 60.435C68.0049 60.985 68.1199 61.565 68.1199 62.175C68.1199 62.915 67.9749 63.575 67.6849 64.155C67.4049 64.725 66.9799 65.175 66.4099 65.505C65.8499 65.835 65.1599 66 64.3399 66C63.2499 66 62.3749 65.73 61.7149 65.19C61.0549 64.65 60.6599 63.935 60.5299 63.045H62.1949C62.3049 63.515 62.5499 63.89 62.9299 64.17C63.3099 64.44 63.7849 64.575 64.3549 64.575C65.0649 64.575 65.5949 64.36 65.9449 63.93C66.3049 63.5 66.4849 62.93 66.4849 62.22C66.4849 61.5 66.3049 60.95 65.9449 60.57C65.5849 60.18 65.0549 59.985 64.3549 59.985C63.8649 59.985 63.4499 60.11 63.1099 60.36C62.7799 60.6 62.5399 60.93 62.3899 61.35H60.7699V55.035H67.3699V56.535Z" fill="#491782"/>
</svg>
